<svg viewBox="0 0 416 300" xmlns="http://www.w3.org/2000/svg">
  <path fill-rule="evenodd" clip-rule="evenodd" d="M335.13 249.687c-26.067 15.965-56.123 28.509-90.166 37.631-37.809 10.131-73.445 14.192-106.908 12.183-33.463-2.008-61.9733-10.738-85.5305-26.188-23.5573-15.45-39.4399-38.491-47.64762-69.123-8.2548-30.807-6.03245-58.746 6.66702-83.818 12.6995-25.0714 33.0606-46.755 61.0832-65.0511 28.0229-18.296 60.9379-32.5095 98.7469-42.6402C209.008 2.59678 244.501-1.47294 277.854.471489 300.262 1.778 320.475 6.10779 338.49 13.4609c8.799 3.591 17.073 7.9031 24.824 12.9363 23.621 15.3393 39.536 38.325 47.744 68.957 8.208 30.6318 5.93 58.5388-6.834 83.7218-1.783 3.518-3.714 6.97-5.793 10.358-1.468-6.614-4.418-12.382-8.849-17.302-2.175-2.415-4.593-4.634-7.255-6.655-5.451-4.138-11.924-7.448-19.418-9.932-11.153-3.697-23.582-5.545-37.285-5.545-13.766 0-26.242 1.832-37.428 5.497-11.185 3.665-20.076 9.178-26.673 16.539-6.597 7.362-9.895 16.651-9.895 27.868 0 11.154 3.298 20.427 9.895 27.821 6.597 7.393 15.488 12.954 26.673 16.682 11.186 3.729 23.662 5.593 37.428 5.593 3.24 0 6.408-.104 9.506-.313Zm-119.254-19.859c-2.613 2.804-7.218 5.784-13.814 8.939-6.597 3.155-14.548 5.816-23.853 7.982-9.305 2.167-19.311 3.251-30.019 3.251-9.369 0-18.547-.908-27.533-2.725-8.987-1.816-17.113-4.7-24.379-8.652-7.2658-3.951-13.0497-9.114-17.3519-15.487-4.302-6.374-6.4531-14.118-6.4531-23.232 0-9.241 2.1511-17.049 6.4531-23.422 4.3022-6.374 10.0861-11.504 17.3519-15.392 7.266-3.888 15.392-6.708 24.379-8.461 8.986-1.753 18.164-2.629 27.533-2.629 10.771 0 20.714.956 29.828 2.868s16.937 4.414 23.47 7.505c6.533 3.091 11.265 6.389 14.197 9.895l-24.474 16.061c-3.569-3.888-8.987-6.995-16.252-9.321-7.266-2.327-16.093-3.49-26.482-3.49-5.099 0-10.246.399-15.44 1.195-5.194.797-9.958 2.151-14.292 4.063s-7.824 4.589-10.469 8.031c-2.645 3.442-3.967 7.807-3.967 13.097 0 5.227 1.322 9.545 3.967 12.954 2.645 3.41 6.135 6.119 10.469 8.127 4.334 2.007 9.098 3.425 14.292 4.254 5.194.829 10.341 1.243 15.44 1.243 10.197 0 19.041-1.275 26.529-3.824 7.489-2.55 12.763-5.482 15.823-8.796l25.047 15.966Zm109.748-3.729c13.321 0 23.646-2.39 30.976-7.17 7.329-4.78 10.994-11.121 10.994-19.025 0-8.094-3.681-14.451-11.042-19.072-7.362-4.621-17.671-6.931-30.928-6.931-13.32 0-23.693 2.31-31.118 6.931-7.425 4.621-11.138 10.978-11.138 19.072 0 8.031 3.713 14.404 11.138 19.121 7.425 4.716 17.798 7.074 31.118 7.074Z"></path>
</svg>
