<svg xmlns="http://www.w3.org/2000/svg" viewBox="0 0 1000 1000">
  <g transform="translate(0.000000,119.000000) scale(0.100000,-0.100000)">
    <path d="M7532.4,517.6c-104.1-112.8-190.8-234.2-190.8-277.5s260.2-346.9,581.1-667.8l581.1-589.7H5017.4H1531v-346.9v-346.9h3486.4h3486.4l-581.1-589.7c-320.9-320.9-581.1-624.4-581.1-676.5s95.4-182.1,216.8-294.9l225.4-208.1l1058.1,1058L9900-1364.3L8859.3-323.6C8286.9,248.8,7801.2,717.1,7766.6,717.1C7740.5,717.1,7636.5,630.4,7532.4,517.6z"/>
    <path d="M1140.7-5180.2L100-6220.9L1158.1-7279l1058-1058.1l225.5,208.2c121.4,112.7,216.8,242.8,216.8,294.9c0,52-260.2,355.5-581.1,676.4l-581,589.7h3486.3H8469v346.9v346.9H4982.6H1496.3l581,589.7c320.9,320.9,581.1,624.4,581.1,676.4c0,86.7-355.6,468.4-442.3,468.4C2198.8-4139.5,1713.1-4607.9,1140.7-5180.2z"/>
  </g>
</svg>
